<?xml version="1.0" encoding="UTF-8" standalone="no"?>
<svg width="18px" height="15px" viewBox="0 0 18 15" version="1.1" xmlns="http://www.w3.org/2000/svg" xmlns:xlink="http://www.w3.org/1999/xlink">
    <!-- Generator: Sketch 3.6.1 (26313) - http://www.bohemiancoding.com/sketch -->
    <title>icon_download</title>
    <desc>Created with Sketch.</desc>
    <defs></defs>
    <g id="Mar-15" stroke="none" stroke-width="1" fill="none" fill-rule="evenodd">
        <g id="Interactions" transform="translate(-1534.000000, -1098.000000)">
            <g id="icon_download" transform="translate(1529.000000, 1092.000000)">
                <g id="icon_download-expanded">
                    <rect id="bounds" fill-opacity="0" fill="#D8D8D8" x="0" y="0" width="28" height="28"></rect>
                    <path d="M14,17 C14.256,17 14.512,16.902 14.707,16.707 L18.707,12.707 L17.293,11.293 L15,13.586 L15,6 L13,6 L13,13.586 L10.707,11.293 L9.293,12.707 L13.293,16.707 C13.488,16.902 13.744,17 14,17" id="Fill-1" fill="#02B3E4"></path>
                    <path d="M21,11 L21,19 L7,19 L7,11 L5,11 L5,20.091 C5,20.593 5.362,21 5.81,21 L22.19,21 C22.638,21 23,20.593 23,20.091 L23,11 L21,11 Z" id="Fill-3" fill="#02B3E4"></path>
                </g>
            </g>
        </g>
    </g>
</svg>